<svg xmlns="http://www.w3.org/2000/svg" viewBox="0 0 678.16 441.42"><title>Asset 2</title><g id="Layer_2" data-name="Layer 2"><g id="Layer_2-2" data-name="Layer 2"><path d="M.08,398.29a.11.11,0,0,1-.08-.1.1.1,0,0,1,.08-.1l50.78-11.36a.09.09,0,0,1,.08,0,.09.09,0,0,1,0,.1L43.5,405.32a.11.11,0,0,1-.09.07Z" style="fill:#e2cec5"/><polygon points="0.1 398.19 50.86 386.83 43.41 405.29 0.1 398.19" style="fill:#e2cec5"/><path d="M9.43,405.39,0,398.27a.1.1,0,0,1,0-.12.09.09,0,0,1,.09-.06l43.32,7.1a.09.09,0,0,1,.08.11.09.09,0,0,1-.09.09Z" style="fill:#7e7457"/><polygon points="9.43 405.29 0.1 398.19 43.41 405.29 9.43 405.29" style="fill:#7e7457"/><path d="M43.41,405.39a.09.09,0,0,1-.07,0,.11.11,0,0,1,0-.11l7.46-18.46a.09.09,0,0,1,.08-.06l34.4-2.67a.1.1,0,0,1,.1.08.1.1,0,0,1,0,.11L43.45,405.38Z" style="fill:#e0cfc6"/><polygon points="50.86 386.83 85.25 384.17 43.41 405.29 50.86 386.83" style="fill:#e0cfc6"/><path d="M43.4,405.39a.11.11,0,0,1-.09-.08.09.09,0,0,1,0-.11l41.85-21.12,0,0,.06,0a.09.09,0,0,1,0,.08v22.65a.11.11,0,0,1,0,.08l-.07,0Z" style="fill:#c6b4a4"/><polygon points="43.41 405.29 85.25 384.17 85.25 406.81 43.41 405.29" style="fill:#c6b4a4"/><path d="M85.25,406.91h0a.1.1,0,0,1-.06-.09V384.16a.12.12,0,0,1,.1-.1l36.64-.78a.1.1,0,0,1,.09.07.08.08,0,0,1,0,.11L85.31,406.9Z" style="fill:#f0e1da"/><polygon points="121.89 383.38 85.25 384.17 85.25 406.81 121.89 383.38" style="fill:#f0e1da"/><path d="M85.25,406.91a.1.1,0,0,1-.09-.06.1.1,0,0,1,0-.12l36.63-23.44h.06a.09.09,0,0,1,.08,0L132.4,397.1a.1.1,0,0,1,0,.1.1.1,0,0,1-.08.06Z" style="fill:#ead7ca"/><polygon points="121.89 383.38 132.32 397.16 85.25 406.81 121.89 383.38" style="fill:#ead7ca"/><path d="M85.24,406.91a.11.11,0,0,1-.09-.09.1.1,0,0,1,.08-.1l47.09-9.66a.12.12,0,0,1,.08,0l13,15a.09.09,0,0,1,0,.11.09.09,0,0,1-.09.05Z" style="fill:#b19b8a"/><polygon points="85.25 406.81 145.32 412.13 132.32 397.16 85.25 406.81" style="fill:#b19b8a"/><path d="M132.32,397.26a.07.07,0,0,1-.07,0l-10.44-13.78a.09.09,0,0,1,0-.11.11.11,0,0,1,.09-.05l37.42,2.36a.11.11,0,0,1,.1.08.11.11,0,0,1-.06.11l-27,11.43Z" style="fill:#c9b09f"/><polygon points="121.89 383.38 159.31 385.74 132.32 397.16 121.89 383.38" style="fill:#c9b09f"/><path d="M132.32,397.26a.08.08,0,0,1-.09-.08.09.09,0,0,1,.06-.11l27-11.42h.08a.08.08,0,0,1,.05.07l3.35,13.39a.1.1,0,0,1,0,.09.09.09,0,0,1-.07,0Z" style="fill:#f1e3d7"/><polygon points="159.31 385.74 162.66 399.13 132.32 397.16 159.31 385.74" style="fill:#f1e3d7"/><path d="M145.32,412.23a.11.11,0,0,1-.07,0l-13-15a.09.09,0,0,1,0-.11.08.08,0,0,1,.08-.06l30.34,2a.11.11,0,0,1,.09.07.1.1,0,0,1,0,.11l-17.34,13S145.34,412.23,145.32,412.23Z" style="fill:#dfc7b9"/><polygon points="132.32 397.16 162.66 399.13 145.32 412.13 132.32 397.16" style="fill:#dfc7b9"/><path d="M162.66,399.23h0a.06.06,0,0,1-.05-.06l-3.35-13.4a.08.08,0,0,1,0-.08.09.09,0,0,1,.08,0l33.29,2.56c.05,0,.08,0,.09.09a.09.09,0,0,1-.06.1l-29.94,10.84Z" style="fill:#826154"/><polygon points="159.31 385.74 192.59 388.3 162.66 399.13 159.31 385.74" style="fill:#826154"/><path d="M145.32,412.23a.1.1,0,0,1-.09-.07.11.11,0,0,1,0-.11l17.34-13,.06,0h0l.07,0,10.24,14a.12.12,0,0,1,0,.1.11.11,0,0,1-.09.06Z" style="fill:#b3988a"/><polygon points="145.32 412.13 172.9 413.12 162.66 399.13 145.32 412.13" style="fill:#b3988a"/><path d="M172.9,413.22a.12.12,0,0,1-.08,0l-10.25-14a.09.09,0,0,1,0-.1.09.09,0,0,1,.09-.06h29.93a.11.11,0,0,1,.1.07.09.09,0,0,1,0,.11L173,413.2Z" style="fill:#a58c82"/><polygon points="162.66 399.13 192.59 399.13 172.9 413.12 162.66 399.13" style="fill:#a58c82"/><path d="M162.66,399.23a.09.09,0,0,1-.1-.08.1.1,0,0,1,.06-.11l29.94-10.83h0l.06,0a.09.09,0,0,1,0,.08v10.83a.09.09,0,0,1-.1.1Z" style="fill:#9d867b"/><polygon points="162.66 399.13 192.59 388.3 192.59 399.13 162.66 399.13" style="fill:#9d867b"/><path d="M192.59,399.23a.07.07,0,0,1-.06,0,.12.12,0,0,1,0-.08V388.3a.1.1,0,0,1,.1-.1l43.92-1.38a.11.11,0,0,1,.1.09.1.1,0,0,1-.07.11l-43.92,12.21Z" style="fill:#6b5350"/><polygon points="192.59 388.3 236.51 386.92 192.59 399.13 192.59 388.3" style="fill:#6b5350"/><path d="M246.33,415.58l-53.77-16.35a.1.1,0,0,1-.07-.1.1.1,0,0,1,.07-.09l43.93-12.22h0a.12.12,0,0,1,.1.07l9.84,28.56a.08.08,0,0,1,0,.1.09.09,0,0,1-.07,0Z" style="fill:#89746e"/><polygon points="192.59 399.13 246.36 415.48 236.51 386.92 192.59 399.13" style="fill:#89746e"/><path d="M172.88,413.22a.11.11,0,0,1-.08-.08.1.1,0,0,1,0-.1l19.69-14,.06,0a.09.09,0,0,1,.07,0L212,418.17a.09.09,0,0,1,0,.11.1.1,0,0,1-.09.06Z" style="fill:#816a5d"/><polygon points="172.9 413.12 211.89 418.24 192.59 399.13 172.9 413.12" style="fill:#816a5d"/><path d="M211.89,418.34a.11.11,0,0,1-.07,0l-19.3-19.11a.09.09,0,0,1,0-.12.09.09,0,0,1,.08-.05h0l53.77,16.34a.12.12,0,0,1,.07.11c0,.05,0,.09-.09.09Z" style="fill:#938079"/><polygon points="192.59 399.13 246.36 415.48 211.89 418.24 192.59 399.13" style="fill:#938079"/><path d="M252.88,396h0l-16.38-9a.22.22,0,0,1-.05-.08.11.11,0,0,1,0-.09l41.28-33,.06,0a.11.11,0,0,1,.07,0,.11.11,0,0,1,0,.12l-24.91,42A.11.11,0,0,1,252.88,396Z" style="fill:#9d93a0"/><polygon points="236.51 386.92 277.79 353.89 252.88 395.89 236.51 386.92" style="fill:#9d93a0"/><path d="M246.36,415.58a.12.12,0,0,1-.1-.07L236.42,387a.08.08,0,0,1,0-.1.09.09,0,0,1,.06,0h.05l16.37,9a.11.11,0,0,1,0,.12l-6.53,19.59a.1.1,0,0,1-.09.07Z" style="fill:#7a6d72"/><polygon points="252.88 395.89 246.36 415.48 236.51 386.92 252.88 395.89" style="fill:#7a6d72"/><path d="M246.36,415.58a.09.09,0,0,1-.07,0,.1.1,0,0,1,0-.1l6.53-19.59a.1.1,0,0,1,.05-.06h.08l24.9,9a.12.12,0,0,1,.07.1.1.1,0,0,1-.07.09l-31.43,10.54Z" style="fill:#8f8085"/><polygon points="252.88 395.89 277.79 404.94 246.36 415.48 252.88 395.89" style="fill:#8f8085"/><path d="M252.88,396a.11.11,0,0,1-.07,0,.09.09,0,0,1,0-.12l24.9-42a.14.14,0,0,1,.08,0h0a.12.12,0,0,1,.08,0l15.18,19.87a.08.08,0,0,1,0,.08.12.12,0,0,1-.05.07L252.93,396Z" style="fill:#82787e"/><polygon points="277.79 353.89 292.97 373.76 252.88 395.89 277.79 353.89" style="fill:#82787e"/><path d="M277.76,405l-24.91-9a.1.1,0,0,1-.07-.08.11.11,0,0,1,.06-.1l40.08-22.13H293a.1.1,0,0,1,.09.14L277.88,405a.1.1,0,0,1-.09.06Z" style="fill:#bab2bc"/><polygon points="292.97 373.76 277.79 404.94 252.88 395.89 292.97 373.76" style="fill:#bab2bc"/><path d="M277.79,405l-.06,0a.11.11,0,0,1,0-.13l15.18-31.18,29.6-7.86h0a.09.09,0,0,1,.08,0,.09.09,0,0,1,0,.13l-44.71,39A.11.11,0,0,1,277.79,405Z" style="fill:#9c949e"/><polygon points="292.97 373.76 322.51 365.95 277.79 404.94 292.97 373.76" style="fill:#9c949e"/><path d="M293,373.86a.12.12,0,0,1-.09-.05.11.11,0,0,1,0-.13l16.63-14.93a.09.09,0,0,1,.07,0h0l12.9,7.13a.11.11,0,0,1,.06.1.12.12,0,0,1-.08.09L293,373.85Z" style="fill:#aea7af"/><polygon points="292.97 373.76 309.61 358.82 322.51 365.95 292.97 373.76" style="fill:#aea7af"/><path d="M322.51,366.05h-.05l-12.9-7.13L306.45,341a.09.09,0,0,1,.07-.11h0a.12.12,0,0,1,.09.05l15.95,24.95a.09.09,0,0,1,0,.12A.11.11,0,0,1,322.51,366.05Z" style="fill:#877e85"/><polygon points="309.61 358.82 306.55 341 322.51 365.95 309.61 358.82" style="fill:#877e85"/><path d="M293,373.86l-.05,0a.1.1,0,0,1,0-.12L306.46,341a.09.09,0,0,1,.09-.06h0a.11.11,0,0,1,.09.08l3.06,17.83-16.67,15A.09.09,0,0,1,293,373.86Z" style="fill:#876456"/><polygon points="306.55 341 292.97 373.76 309.61 358.82 306.55 341" style="fill:#876456"/><path d="M293,373.86a.12.12,0,0,1-.08,0L277.71,354a.11.11,0,0,1,0-.08.11.11,0,0,1,.06-.07l28.76-12.89h0a.1.1,0,0,1,.09.14L293.06,373.8a.11.11,0,0,1-.07.06Z" style="fill:#885f47"/><polygon points="277.79 353.89 306.55 341 292.97 373.76 277.79 353.89" style="fill:#885f47"/><path d="M277.79,354a.1.1,0,0,1-.09-.14l29.95-58.21a.1.1,0,0,1,.09-.06h0a.11.11,0,0,1,.08.1L306.65,341a.09.09,0,0,1-.06.09L277.83,354Z" style="fill:#b17154"/><polygon points="277.79 353.89 307.74 295.68 306.55 341 277.79 353.89" style="fill:#b17154"/><path d="M322.5,366.05a.1.1,0,0,1-.08-.05l-15.95-24.95a.09.09,0,0,1,0-.09.11.11,0,0,1,.07-.06l52.11-12.22h0a.12.12,0,0,1,.09.05.11.11,0,0,1,0,.12L322.58,366a.11.11,0,0,1-.07,0Z" style="fill:#937f7c"/><polygon points="306.55 341 358.66 328.78 322.51 365.95 306.55 341" style="fill:#937f7c"/><path d="M306.55,341.1a.12.12,0,0,1-.09-.05.11.11,0,0,1,0-.12l40.74-41.08a.08.08,0,0,1,.07,0h0a.09.09,0,0,1,.07.06l11.37,28.85a.14.14,0,0,1,0,.09.18.18,0,0,1-.07.05L306.57,341.1Z" style="fill:#a37a62"/><polygon points="306.55 341 347.29 299.93 358.66 328.78 306.55 341" style="fill:#a37a62"/><path d="M306.55,341.1h0a.09.09,0,0,1-.06-.09l1.19-45.32a.08.08,0,0,1,0-.07.11.11,0,0,1,.07,0l39.56,4.24a.1.1,0,0,1,.08.07s0,.08,0,.1l-40.74,41.08A.09.09,0,0,1,306.55,341.1Z" style="fill:#61361a"/><polygon points="306.55 341 307.74 295.68 347.29 299.93 306.55 341" style="fill:#61361a"/><path d="M358.64,328.88a.11.11,0,0,1-.07-.06L347.19,300a.11.11,0,0,1,0-.11.09.09,0,0,1,.07,0h0L373.4,311.4a.09.09,0,0,1,0,.15l-14.7,17.29a.09.09,0,0,1-.08,0Z" style="fill:#765843"/><polygon points="347.29 299.93 373.36 311.49 358.66 328.78 347.29 299.93" style="fill:#765843"/><path d="M307.73,295.78a.1.1,0,0,1-.07,0,.11.11,0,0,1,0-.08l14.77-72.53a.12.12,0,0,1,.09-.08h0a.1.1,0,0,1,.09.07l24.78,76.77a.09.09,0,0,1,0,.1.08.08,0,0,1-.07,0Z" style="fill:#4b2313"/><polygon points="307.74 295.68 322.51 223.15 347.29 299.93 307.74 295.68" style="fill:#4b2313"/><path d="M347.29,300a.1.1,0,0,1-.1-.07l-24.78-76.76a.14.14,0,0,1,0-.11.11.11,0,0,1,.08,0h0l18.12,5.37a.1.1,0,0,1,.07.09l6.67,71.39a.1.1,0,0,1-.08.11Z" style="fill:#72492d"/><polygon points="347.29 299.93 340.62 228.53 322.51 223.15 347.29 299.93" style="fill:#72492d"/><path d="M340.59,228.62l-18.11-5.37a.13.13,0,0,1-.07-.06.08.08,0,0,1,0-.08L343.08,181a.09.09,0,0,1,.09-.05h0a.11.11,0,0,1,.08.1l-2.55,47.52a.12.12,0,0,1,0,.08l-.06,0Z" style="fill:#cf8f6a"/><polygon points="340.62 228.53 343.17 181.01 322.51 223.15 340.62 228.53" style="fill:#cf8f6a"/><path d="M340.6,228.63a.11.11,0,0,1-.08-.11L343.07,181l21.52-23.54a.11.11,0,0,1,.07,0h0a.12.12,0,0,1,.05.12l-24.05,71a.1.1,0,0,1-.09.07Z" style="fill:#b56f45"/><polygon points="343.17 181.01 364.66 157.53 340.62 228.53 343.17 181.01" style="fill:#b56f45"/><path d="M340.62,228.63h-.05a.1.1,0,0,1,0-.12l24-71a.1.1,0,0,1,.09-.07h0a.11.11,0,0,1,.08.1l2,41-26,30.05A.09.09,0,0,1,340.62,228.63Z" style="fill:#af673a"/><polygon points="364.66 157.53 366.64 198.54 340.62 228.53 364.66 157.53" style="fill:#af673a"/><path d="M347.27,300a.09.09,0,0,1-.08-.09l-6.67-71.39a.09.09,0,0,1,.06-.1h0a.08.08,0,0,1,.07,0l24.05,27.16a.12.12,0,0,1,0,.1L347.38,300a.09.09,0,0,1-.09.06Z" style="fill:#6f3e1b"/><polygon points="340.62 228.53 364.66 255.68 347.29 299.93 340.62 228.53" style="fill:#6f3e1b"/><path d="M373.36,311.59h0L347.25,300a.11.11,0,0,1-.06-.13l17.38-44.24a.11.11,0,0,1,.09-.07h0a.11.11,0,0,1,.09.09l8.7,55.8a.1.1,0,0,1,0,.1Z" style="fill:#361c10"/><polygon points="364.66 255.68 373.36 311.49 347.29 299.93 364.66 255.68" style="fill:#361c10"/><path d="M364.66,255.78a.09.09,0,0,1-.07,0l-24-27.16a.09.09,0,0,1,0-.13l26-30a.13.13,0,0,1,.07,0h0a.1.1,0,0,1,.06.1l-2,57.14a.1.1,0,0,1-.06.09Z" style="fill:#7a4b29"/><polygon points="364.66 255.68 366.64 198.54 340.62 228.53 364.66 255.68" style="fill:#7a4b29"/><path d="M366.62,198.64a.11.11,0,0,1-.08-.09l-2-41,32.29-21.87.06,0,.07,0a.11.11,0,0,1,0,.12l-30.27,62.8a.1.1,0,0,1-.09.06Z" style="fill:#cd7945"/><polygon points="364.66 157.53 396.91 135.75 366.64 198.54 364.66 157.53" style="fill:#cd7945"/><path d="M358.64,328.88a.13.13,0,0,1-.08-.07.1.1,0,0,1,0-.09l14.71-17.3a.09.09,0,0,1,.07,0h0a.08.08,0,0,1,.07.05L384,333.14a.14.14,0,0,1,0,.11.12.12,0,0,1-.08,0Z" style="fill:#1d110e"/><polygon points="358.66 328.78 383.9 333.19 373.36 311.49 358.66 328.78" style="fill:#1d110e"/><path d="M383.9,333.29a.09.09,0,0,1-.09-.06l-10.54-21.7a.1.1,0,0,1,0-.12.07.07,0,0,1,.06,0s.05,0,.06,0l24.68,19.44a.1.1,0,0,1,0,.1.08.08,0,0,1-.08.07Z" style="fill:#694f2b"/><polygon points="383.9 333.19 398.04 330.92 373.36 311.49 383.9 333.19" style="fill:#694f2b"/><path d="M398,331a.07.07,0,0,1-.06,0L373.3,311.56a.08.08,0,0,1,0-.1.08.08,0,0,1,.08-.07l50.43-4.89a.09.09,0,0,1,.09.06.09.09,0,0,1,0,.11L398.11,331A.1.1,0,0,1,398,331Z" style="fill:#664c23"/><polygon points="373.36 311.49 423.78 306.6 398.04 330.92 373.36 311.49" style="fill:#664c23"/><path d="M373.33,311.58a.1.1,0,0,1-.07-.08l-8.7-55.8a.13.13,0,0,1,0-.1l.06,0h0l45,20.93a.16.16,0,0,1,.06.08.16.16,0,0,1,0,.09l-36.28,34.87a.09.09,0,0,1-.07,0Z" style="fill:#2b140f"/><polygon points="364.66 255.68 409.64 276.62 373.36 311.49 364.66 255.68" style="fill:#2b140f"/><path d="M373.36,311.59a.11.11,0,0,1-.09-.06.11.11,0,0,1,0-.12l36.28-34.87a.08.08,0,0,1,.07,0h0a.08.08,0,0,1,.07.05l14.14,30s0,.06,0,.09a.14.14,0,0,1-.08.05Z" style="fill:#4c2d16"/><polygon points="409.64 276.62 423.78 306.6 373.36 311.49 409.64 276.62" style="fill:#4c2d16"/><path d="M364.66,255.78h-.05a.12.12,0,0,1-.05-.09l2-57.14a.11.11,0,0,1,.08-.09h0a.11.11,0,0,1,.09.05l28.28,45a.08.08,0,0,1,0,.08s0,0,0,.06L364.7,255.78Z" style="fill:#8c512b"/><polygon points="366.64 198.54 394.93 243.52 364.66 255.68 366.64 198.54" style="fill:#8c512b"/><path d="M409.6,276.71l-45-20.94a.1.1,0,0,1-.06-.09.1.1,0,0,1,.07-.09l30.26-12.16h0a.1.1,0,0,1,.09.06l14.71,33.09a.11.11,0,0,1,0,.12l-.07,0Z" style="fill:#5a3318"/><polygon points="394.93 243.52 409.64 276.62 364.66 255.68 394.93 243.52" style="fill:#5a3318"/><path d="M409.62,276.71a.08.08,0,0,1-.07,0l-14.71-33.1a.09.09,0,0,1,0-.1.09.09,0,0,1,.08,0l39.62,9.9a.11.11,0,0,1,.08.08.1.1,0,0,1,0,.09l-24.89,23.2a.1.1,0,0,1-.07,0Z" style="fill:#6f4726"/><polygon points="394.93 243.52 434.53 253.42 409.64 276.62 394.93 243.52" style="fill:#6f4726"/><path d="M423.78,306.7a.1.1,0,0,1-.09-.06l-14.14-30a.11.11,0,0,1,0-.12l24.89-23.19a.11.11,0,0,1,.07,0h.05a.1.1,0,0,1,.05.11l-10.75,53.18a.11.11,0,0,1-.09.08Z" style="fill:#8f6548"/><polygon points="434.53 253.42 423.78 306.6 409.64 276.62 434.53 253.42" style="fill:#8f6548"/><path d="M423.78,306.7h0a.13.13,0,0,1-.06-.11l10.75-53.18a.1.1,0,0,1,.1-.08L471,255.58a.11.11,0,0,1,.09.07.08.08,0,0,1,0,.1l-47.23,50.92A.11.11,0,0,1,423.78,306.7Z" style="fill:#6d492e"/><polygon points="423.78 306.6 471.02 255.68 434.53 253.42 423.78 306.6" style="fill:#6d492e"/><path d="M434.52,253.52a.11.11,0,0,1-.09-.07.12.12,0,0,1,0-.11L471,225.06l.06,0h0a.11.11,0,0,1,.06.09v30.55a.11.11,0,0,1,0,.08l-.07,0Z" style="fill:#7c4c2f"/><polygon points="434.53 253.42 471.02 225.13 471.02 255.68 434.53 253.42" style="fill:#7c4c2f"/><path d="M394.9,243.62a.1.1,0,0,1-.07-.1.1.1,0,0,1,.08-.1L471,225a.11.11,0,0,1,.09.06.1.1,0,0,1,0,.12L434.59,253.5l-.06,0Z" style="fill:#562f18"/><polygon points="394.93 243.52 471.02 225.13 434.53 253.42 394.93 243.52" style="fill:#562f18"/><path d="M394.93,243.62a.12.12,0,0,1-.09-.05l-28.28-45a.11.11,0,0,1,0-.11.1.1,0,0,1,.08-.05L471,225a.09.09,0,0,1,.08.09.1.1,0,0,1-.08.1L395,243.62Z" style="fill:#613318"/><polygon points="366.64 198.54 471.02 225.13 394.93 243.52 366.64 198.54" style="fill:#613318"/><path d="M366.64,198.65a.13.13,0,0,1-.07,0,.11.11,0,0,1,0-.11l30.27-62.79a.11.11,0,0,1,.07-.06h0a.09.09,0,0,1,.07,0l34.23,36.21a.09.09,0,0,1,0,.09.09.09,0,0,1-.06.07l-64.49,26.59Z" style="fill:#af6e3e"/><polygon points="366.64 198.54 431.14 171.96 396.91 135.75 366.64 198.54" style="fill:#af6e3e"/><path d="M366.62,198.64a.11.11,0,0,1-.08-.09.12.12,0,0,1,.07-.1l64.49-26.59h0a.09.09,0,0,1,.08,0l39.88,53.17a.11.11,0,0,1,0,.12.09.09,0,0,1-.08,0Z" style="fill:#c27246"/><polygon points="366.64 198.54 471.02 225.13 431.14 171.96 366.64 198.54" style="fill:#c27246"/><path d="M431.14,172.06a.12.12,0,0,1-.08,0l-34.22-36.2a.09.09,0,0,1,0-.09.14.14,0,0,1,.07-.08l52.58-16.87h0a.11.11,0,0,1,.1.13L431.23,172a.09.09,0,0,1-.07.06Z" style="fill:#9a4b23"/><polygon points="396.91 135.75 449.49 118.88 431.14 171.96 396.91 135.75" style="fill:#9a4b23"/><path d="M471,225.23a.09.09,0,0,1-.08,0L431.06,172a.11.11,0,0,1,0-.12.1.1,0,0,1,.09,0l52.44,12.72a.1.1,0,0,1,.06,0,.08.08,0,0,1,0,.08l-12.54,40.45a.08.08,0,0,1-.07.07Z" style="fill:#a46546"/><polygon points="431.14 171.96 483.56 184.68 471.02 225.13 431.14 171.96" style="fill:#a46546"/><path d="M471,225.23a.11.11,0,0,1-.08,0,.12.12,0,0,1,0-.1l12.54-40.45a.1.1,0,0,1,.09-.07h0a.11.11,0,0,1,.09.06L499.9,221a.1.1,0,0,1-.07.14Z" style="fill:#e1b29a"/><polygon points="483.56 184.68 499.81 221.03 471.02 225.13 483.56 184.68" style="fill:#e1b29a"/><path d="M423.78,306.7a.11.11,0,0,1-.09-.06.09.09,0,0,1,0-.11L471,255.61a.09.09,0,0,1,.07,0h0a.11.11,0,0,1,.06.1L467,306.61a.1.1,0,0,1-.1.09Z" style="fill:#917059"/><polygon points="423.78 306.6 466.91 306.6 471.02 255.68 423.78 306.6" style="fill:#917059"/><path d="M447.4,318.86h0l-23.61-12.16a.1.1,0,0,1-.06-.12.12.12,0,0,1,.1-.07h43.13a.11.11,0,0,1,.1.07.1.1,0,0,1-.05.11l-19.51,12.17Z" style="fill:#7f673b"/><polygon points="466.91 306.6 447.4 318.76 423.78 306.6 466.91 306.6" style="fill:#7f673b"/><path d="M447.38,349.68a.1.1,0,0,1-.08-.1V318.76l19.56-12.25h.05l.07,0a.11.11,0,0,1,0,.12l-19.51,43a.1.1,0,0,1-.09.06Z" style="fill:#c0a895"/><polygon points="447.4 318.76 447.4 349.58 466.91 306.6 447.4 318.76" style="fill:#c0a895"/><path d="M468.46,379.87a.09.09,0,0,1-.08,0l-21.06-30.19,19.5-43.08a.1.1,0,0,1,.09-.06h0a.1.1,0,0,1,.08.1l1.55,73.17a.12.12,0,0,1-.07.1Z" style="fill:#a99692"/><polygon points="466.91 306.6 447.4 349.58 468.46 379.77 466.91 306.6" style="fill:#a99692"/><path d="M466.88,306.69a.1.1,0,0,1-.07-.1l4.11-50.91a.1.1,0,0,1,.1-.1l26.86,1.77a.15.15,0,0,1,.09.06.12.12,0,0,1,0,.1l-31,49.14a.12.12,0,0,1-.09.05Z" style="fill:#967057"/><polygon points="466.91 306.6 497.88 257.45 471.02 255.68 466.91 306.6" style="fill:#967057"/><path d="M471,255.78a.09.09,0,0,1-.09-.1V225.13A.1.1,0,0,1,471,225h0a.12.12,0,0,1,.08,0L498,257.39a.11.11,0,0,1,0,.11.12.12,0,0,1-.09.05Z" style="fill:#9e6a4e"/><polygon points="471.02 225.13 497.88 257.45 471.02 255.68 471.02 225.13" style="fill:#9e6a4e"/><path d="M497.88,257.55a.11.11,0,0,1-.08,0L470.94,225.2a.09.09,0,0,1,0-.1A.08.08,0,0,1,471,225l28.8-4.11a.09.09,0,0,1,.07,0,.11.11,0,0,1,0,.08L498,257.46a.1.1,0,0,1-.07.09Z" style="fill:#b6816b"/><polygon points="471.02 225.13 499.81 221.03 497.88 257.45 471.02 225.13" style="fill:#b6816b"/><path d="M497.88,257.55h-.05a.1.1,0,0,1-.05-.09L499.71,221a.1.1,0,0,1,.05-.08l.05,0h0l37.94,12.69a.1.1,0,0,1,.07.08.12.12,0,0,1-.05.1l-39.87,23.73Z" style="fill:#9a6f4e"/><polygon points="499.81 221.03 537.75 233.72 497.88 257.45 499.81 221.03" style="fill:#9a6f4e"/><path d="M441,437.16a.09.09,0,0,1-.08,0,.08.08,0,0,1,0-.1l27.48-57.29a.1.1,0,0,1,.09-.06h0a.09.09,0,0,1,.08.09v51.49a.09.09,0,0,1-.08.09Z" style="fill:#786764"/><polygon points="468.46 379.77 468.46 431.25 440.98 437.06 468.46 379.77" style="fill:#786764"/><path d="M468.46,431.35h0a.1.1,0,0,1-.06-.09V379.77a.1.1,0,0,1,.07-.09h0a.1.1,0,0,1,.08.05l20.91,32.51a.11.11,0,0,1,0,.13l-20.9,19A.1.1,0,0,1,468.46,431.35Z" style="fill:#e9e8ee"/><polygon points="468.46 379.77 489.36 412.29 468.46 431.25 468.46 379.77" style="fill:#e9e8ee"/><path d="M468.44,379.87a.1.1,0,0,1-.08-.1l-1.55-73.17a.1.1,0,0,1,.08-.1h0a.1.1,0,0,1,.09.06l18.51,40.76-17,32.5a.12.12,0,0,1-.09.05Z" style="fill:#c5c3c8"/><polygon points="466.91 306.6 485.42 347.37 468.46 379.77 466.91 306.6" style="fill:#c5c3c8"/><path d="M485.42,347.46a.09.09,0,0,1-.09,0l-18.51-40.77,31-49.24a.11.11,0,0,1,.09,0h0a.11.11,0,0,1,.07.11l-12.46,89.91a.1.1,0,0,1-.09.08Z" style="fill:#b7a59b"/><polygon points="466.91 306.6 497.88 257.45 485.42 347.37 466.91 306.6" style="fill:#b7a59b"/><path d="M441,437.16a.09.09,0,0,1-.09-.09A.1.1,0,0,1,441,437l27.48-5.8,38.37,10.06a.1.1,0,0,1,.07.12.11.11,0,0,1-.1.08Z" style="fill:#d4d4d8"/><polygon points="440.98 437.06 506.78 441.32 468.46 431.25 440.98 437.06" style="fill:#d4d4d8"/><path d="M506.76,441.42l-38.33-10.07a.12.12,0,0,1-.07-.07.1.1,0,0,1,0-.1l20.9-19,.07,0h0s.05,0,.07.05l17.42,29a.1.1,0,0,1-.09.15Z" style="fill:#b3a399"/><polygon points="468.46 431.25 506.78 441.32 489.36 412.29 468.46 431.25" style="fill:#b3a399"/><path d="M506.78,441.42a.12.12,0,0,1-.09-.05l-17.41-29a.11.11,0,0,1,0-.11.12.12,0,0,1,.08,0l68.52,5.8s.09,0,.09.09a.1.1,0,0,1-.05.11l-51.1,23.22Z" style="fill:#c4bcbe"/><polygon points="489.36 412.29 557.88 418.09 506.78 441.32 489.36 412.29" style="fill:#c4bcbe"/><path d="M506.78,441.42a.1.1,0,0,1-.1-.08.11.11,0,0,1,.06-.11L557.83,418h0a.09.09,0,0,1,.08.06l12.78,23.22a.17.17,0,0,1,0,.1.11.11,0,0,1-.09.05Z" style="fill:#d2d3da"/><polygon points="506.78 441.32 570.65 441.32 557.88 418.09 506.78 441.32" style="fill:#d2d3da"/><path d="M570.64,441.42a.1.1,0,0,1-.08-.05l-12.77-23.23a.09.09,0,0,1,0-.11.12.12,0,0,1,.08,0h0l25.93,8.71a.12.12,0,0,1,.07.07.1.1,0,0,1,0,.09l-13.17,14.52a.09.09,0,0,1-.07,0Z" style="fill:#c0adab"/><polygon points="557.88 418.09 583.81 426.8 570.65 441.32 557.88 418.09" style="fill:#c0adab"/><path d="M570.65,441.42a.09.09,0,0,1-.09-.06.09.09,0,0,1,0-.11l13.16-14.51a.1.1,0,0,1,.07,0h0a.12.12,0,0,1,.08,0l12.38,14.52a.08.08,0,0,1,0,.1.1.1,0,0,1-.09.06Z" style="fill:#716264"/><polygon points="570.65 441.32 596.2 441.32 583.81 426.8 570.65 441.32" style="fill:#716264"/><path d="M596.2,441.42a.09.09,0,0,1-.08,0l-12.39-14.51a.11.11,0,0,1,0-.11.11.11,0,0,1,.09-.06h21.68a.11.11,0,0,1,.09.06.12.12,0,0,1,0,.1l-9.29,14.51a.08.08,0,0,1-.08.05Z" style="fill:#413d4b"/><polygon points="583.81 426.8 605.49 426.8 596.2 441.32 583.81 426.8" style="fill:#413d4b"/><path d="M596.2,441.42a.12.12,0,0,1-.08,0,.09.09,0,0,1,0-.11l9.29-14.52a.14.14,0,0,1,.08-.05h0a.09.09,0,0,1,.07,0L615.24,437a.12.12,0,0,1,0,.1.12.12,0,0,1-.07.07Z" style="fill:#3b3534"/><polygon points="605.49 426.8 615.16 437.06 596.2 441.32 605.49 426.8" style="fill:#3b3534"/><path d="M489.36,412.39a.1.1,0,0,1-.08-.05l-20.91-32.51a.12.12,0,0,1,0-.13.11.11,0,0,1,.07,0l.06,0,17.84,14.86,3.1,17.71a.1.1,0,0,1-.06.11Z" style="fill:#e2d7de"/><polygon points="486.3 394.63 468.46 379.77 489.36 412.29 486.3 394.63" style="fill:#e2d7de"/><path d="M486.3,394.73l-.07,0-17.84-14.86a.11.11,0,0,1,0-.12l17-32.41a.09.09,0,0,1,.09-.05h0a.11.11,0,0,1,.08.09l.88,47.27a.09.09,0,0,1-.06.09Z" style="fill:#d2cdd4"/><polygon points="486.3 394.63 485.42 347.37 468.46 379.77 486.3 394.63" style="fill:#d2cdd4"/><path d="M440.94,419.75a.09.09,0,0,1-.06-.1l4.37-28.21,23.16-11.76h0a.1.1,0,0,1,.07,0,.09.09,0,0,1,0,.12l-27.48,39.89a.09.09,0,0,1-.08,0Z" style="fill:#8d7c7b"/><polygon points="468.46 379.77 445.35 391.46 440.98 419.66 468.46 379.77" style="fill:#8d7c7b"/><path d="M441,437.16a.1.1,0,0,1-.07-.1v-17.4l27.5-39.94a.1.1,0,0,1,.08-.05l.05,0a.11.11,0,0,1,0,.13L441.07,437.1a.11.11,0,0,1-.09.06Z" style="fill:#bdbbbf"/><polygon points="468.46 379.77 440.98 419.66 440.98 437.06 468.46 379.77" style="fill:#bdbbbf"/><path d="M445.35,391.56l-.06,0a.08.08,0,0,1,0-.09l2.05-41.88a.11.11,0,0,1,.07-.09h0a.09.09,0,0,1,.08,0l21.06,30.2a.11.11,0,0,1,0,.08.09.09,0,0,1-.06.06l-23.11,11.69Z" style="fill:#a39d9f"/><polygon points="445.35 391.46 447.4 349.58 468.46 379.77 445.35 391.46" style="fill:#a39d9f"/><path d="M489.36,412.39h0a.13.13,0,0,1-.06-.07l-3.06-17.66a.11.11,0,0,1,0-.09.09.09,0,0,1,.07,0l30,3.53a.09.09,0,0,1,.08.08.1.1,0,0,1-.05.11l-26.9,14.13Z" style="fill:#726263"/><polygon points="486.3 394.63 516.26 398.16 489.36 412.29 486.3 394.63" style="fill:#726263"/><path d="M489.36,412.39a.1.1,0,0,1-.09-.07.09.09,0,0,1,0-.12l26.91-14.13,35.14,7.35a.1.1,0,0,1,.08.1.09.09,0,0,1-.09.09Z" style="fill:#201510"/><polygon points="516.26 398.16 551.34 405.51 489.36 412.29 516.26 398.16" style="fill:#201510"/><path d="M489.35,412.39a.11.11,0,0,1-.09-.1.1.1,0,0,1,.09-.1l62-6.78a.11.11,0,0,1,.09.06L558,418.05a.09.09,0,0,1-.08.14Z" style="fill:#31303a"/><polygon points="489.36 412.29 557.88 418.09 551.34 405.51 489.36 412.29" style="fill:#31303a"/><path d="M557.85,418.19a.1.1,0,0,1-.06-.05l-6.54-12.58a.09.09,0,0,1,0-.11.1.1,0,0,1,.07,0h0l16.92,6.77a.1.1,0,0,1,.06.09.07.07,0,0,1-.05.09l-10.39,5.81h-.07Z" style="fill:#b2a1a0"/><polygon points="551.34 405.51 568.26 412.29 557.88 418.09 551.34 405.51" style="fill:#b2a1a0"/><path d="M393.2,419.76a.1.1,0,0,1-.1-.07.11.11,0,0,1,0-.12l52.15-28.2h.05l0,0a.08.08,0,0,1,0,.1l-4.37,28.2a.08.08,0,0,1-.09.08Z" style="fill:#8d8985"/><polygon points="440.98 419.66 393.2 419.66 445.35 391.46 440.98 419.66" style="fill:#8d8985"/><path d="M393.2,419.76h-.06a.1.1,0,0,1,0-.1l4.84-61.06a.11.11,0,0,1,.06-.09h0l.06,0,47.3,32.87a.11.11,0,0,1,.05.09.16.16,0,0,1-.06.08l-52.15,28.2Z" style="fill:#513f30"/><polygon points="393.2 419.66 398.04 358.59 445.35 391.46 393.2 419.66" style="fill:#513f30"/><path d="M398,358.69H398a.13.13,0,0,1,0-.09V330.92a.1.1,0,0,1,.05-.08l.05,0h0l31.6,15.09a.11.11,0,0,1,.06.09.09.09,0,0,1-.06.09l-31.6,12.59Z" style="fill:#ad957f"/><polygon points="398.04 358.59 398.04 330.92 429.64 346.01 398.04 358.59" style="fill:#ad957f"/><path d="M444.14,390.72h-.05l-46.11-32a.13.13,0,0,1,0-.1s0-.07.06-.08l31.6-12.58h.08a.09.09,0,0,1,.06.06l14.5,44.61a.09.09,0,0,1,0,.11S444.16,390.72,444.14,390.72Z" style="fill:#5e4933"/><polygon points="429.64 346.01 444.14 390.62 398.04 358.59 429.64 346.01" style="fill:#5e4933"/><path d="M429.64,346.11h0L398,331a.11.11,0,0,1-.06-.07.14.14,0,0,1,0-.09l25.74-24.32a.11.11,0,0,1,.07,0h0s.07.05.07.08L429.74,346a.09.09,0,0,1,0,.09Z" style="fill:#3b2b17"/><polygon points="429.64 346.01 423.78 306.6 398.04 330.92 429.64 346.01" style="fill:#3b2b17"/><path d="M431.11,172.05a.07.07,0,0,1-.06-.05.08.08,0,0,1,0-.08l18.36-53.08a.09.09,0,0,1,.08-.06h0a.11.11,0,0,1,.09,0l34.06,65.8a.09.09,0,0,1,0,.11.08.08,0,0,1-.07,0Z" style="fill:#aa5b2b"/><polygon points="449.49 118.88 483.56 184.68 431.14 171.96 449.49 118.88" style="fill:#aa5b2b"/><path d="M483.56,184.78a.09.09,0,0,1-.09-.05L449.4,118.92a.12.12,0,0,1,0-.1s0,0,.08,0h68.32a.1.1,0,0,1,.09,0,.09.09,0,0,1,0,.1l-34.26,65.81a.09.09,0,0,1-.08.05Z" style="fill:#ac5e33"/><polygon points="449.49 118.88 517.81 118.88 483.56 184.68 449.49 118.88" style="fill:#ac5e33"/><path d="M554.26,153.65a.09.09,0,0,1-.07,0L517.74,119a.16.16,0,0,1,0-.09.1.1,0,0,1,.07-.08L558.94,103h0l.06,0a.11.11,0,0,1,0,.09l-4.71,50.43a.08.08,0,0,1-.07.08Z" style="fill:#a2683a"/><polygon points="517.81 118.88 558.97 103.12 554.26 153.55 517.81 118.88" style="fill:#a2683a"/><path d="M483.56,184.78a.11.11,0,0,1-.09-.05.09.09,0,0,1,0-.1l34.25-65.8a.11.11,0,0,1,.09,0h0s.07,0,.08.08l8.88,63.89a.19.19,0,0,1,0,.08.12.12,0,0,1-.08,0Z" style="fill:#a76342"/><polygon points="483.56 184.68 526.69 182.77 517.81 118.88 483.56 184.68" style="fill:#a76342"/><path d="M526.66,182.86a.1.1,0,0,1-.07-.08l-8.88-63.89a.11.11,0,0,1,.06-.1h0l.07,0,36.45,34.68a.1.1,0,0,1,0,.14l-27.57,29.22a.09.09,0,0,1-.07,0Z" style="fill:#955a39"/><polygon points="526.69 182.77 554.26 153.55 517.81 118.88 526.69 182.77" style="fill:#955a39"/><path d="M499.8,221.13a.09.09,0,0,1-.08-.06l-16.26-36.35a.1.1,0,0,1,0-.09.1.1,0,0,1,.08,0l43.14-1.91a.11.11,0,0,1,.09.05.09.09,0,0,1,0,.1L499.9,221.09a.1.1,0,0,1-.09,0Z" style="fill:#8b4e29"/><polygon points="526.69 182.77 499.81 221.03 483.56 184.68 526.69 182.77" style="fill:#8b4e29"/><path d="M537.72,233.82l-37.94-12.69a.11.11,0,0,1-.06-.07.08.08,0,0,1,0-.08l26.88-38.27a.09.09,0,0,1,.08,0h0a.11.11,0,0,1,.08.08l11.06,50.95a.13.13,0,0,1,0,.1l-.06,0Z" style="fill:#8a6248"/><polygon points="526.69 182.77 537.75 233.72 499.81 221.03 526.69 182.77" style="fill:#8a6248"/><path d="M537.72,233.82a.1.1,0,0,1-.07-.08l-11.06-51a.12.12,0,0,1,0-.11h.06a.07.07,0,0,1,.06,0l36,25.47a.12.12,0,0,1,0,.08.09.09,0,0,1,0,.07l-25,25.48a.11.11,0,0,1-.07,0Z" style="fill:#4e3217"/><polygon points="526.69 182.77 562.74 208.25 537.75 233.72 526.69 182.77" style="fill:#4e3217"/><path d="M562.74,208.35l-.06,0-36-25.48a.1.1,0,0,1,0-.07.11.11,0,0,1,0-.08l27.57-29.22a.09.09,0,0,1,.07,0h0a.11.11,0,0,1,.07.08l8.48,54.7a.09.09,0,0,1-.05.1Z" style="fill:#382414"/><polygon points="562.74 208.25 554.26 153.55 526.69 182.77 562.74 208.25" style="fill:#382414"/><path d="M559,103.22s-.07,0-.08,0a.11.11,0,0,1,0-.11l25-39.59a.13.13,0,0,1,.09,0h0a.08.08,0,0,1,.08.07l10.84,35.81a.1.1,0,0,1,0,.09.1.1,0,0,1-.07,0Z" style="fill:#b87658"/><polygon points="558.97 103.12 583.95 63.54 594.79 99.35 558.97 103.12" style="fill:#b87658"/><path d="M604.68,130.09l0,0-45.71-26.86a.1.1,0,0,1,0-.11A.12.12,0,0,1,559,103l35.83-3.77a.1.1,0,0,1,.09.07l9.9,30.64a.1.1,0,0,1,0,.1A.09.09,0,0,1,604.68,130.09Z" style="fill:#875840"/><polygon points="558.97 103.12 604.68 129.99 594.79 99.35 558.97 103.12" style="fill:#875840"/><path d="M581.81,150.92a.11.11,0,0,1-.07-.06l-22.86-47.69a.11.11,0,0,1,0-.12.11.11,0,0,1,.07,0l0,0,45.71,26.86a.09.09,0,0,1,0,.08.08.08,0,0,1,0,.08L581.9,150.9l-.07,0Z" style="fill:#b57456"/><polygon points="558.97 103.12 581.83 150.82 604.68 129.99 558.97 103.12" style="fill:#b57456"/><path d="M554.26,153.65a.09.09,0,0,1-.07,0,.11.11,0,0,1,0-.08l4.71-50.43A.12.12,0,0,1,559,103h0a.11.11,0,0,1,.09.06l22.86,47.7a.1.1,0,0,1,0,.09.08.08,0,0,1-.07,0Z" style="fill:#8a5338"/><polygon points="554.26 153.55 581.83 150.82 558.97 103.12 554.26 153.55" style="fill:#8a5338"/><path d="M562.71,208.34a.11.11,0,0,1-.07-.08l-8.48-54.7a.09.09,0,0,1,.05-.1h0l.06,0,33,27.35a.1.1,0,0,1,0,.07.09.09,0,0,1,0,.07l-24.5,27.35a.12.12,0,0,1-.08,0Z" style="fill:#774427"/><polygon points="562.74 208.25 587.25 180.9 554.26 153.55 562.74 208.25" style="fill:#774427"/><path d="M587.25,181a.11.11,0,0,1-.07,0l-33-27.34a.1.1,0,0,1,0-.11.11.11,0,0,1,.09-.07l27.58-2.73a.11.11,0,0,1,.1.08l5.42,30.08a.12.12,0,0,1-.05.1Z" style="fill:#bc8066"/><polygon points="587.25 180.9 581.83 150.82 554.26 153.55 587.25 180.9" style="fill:#bc8066"/><path d="M587.23,181a.11.11,0,0,1-.08-.09l-5.42-30.07a.1.1,0,0,1,0-.09.11.11,0,0,1,.08,0l22.87,2.73a.09.09,0,0,1,.07.06.07.07,0,0,1,0,.09L587.33,181a.1.1,0,0,1-.08.05Z" style="fill:#b88863"/><polygon points="587.25 180.9 604.68 153.55 581.83 150.82 587.25 180.9" style="fill:#b88863"/><path d="M581.82,150.92a.1.1,0,0,1-.09-.07.09.09,0,0,1,0-.1l22.86-20.84.06,0h0a.11.11,0,0,1,.06.1v23.56a.1.1,0,0,1-.1.1Z" style="fill:#bc805b"/><polygon points="604.68 153.55 604.68 129.99 581.83 150.82 604.68 153.55" style="fill:#bc805b"/><path d="M587.23,181a.11.11,0,0,1-.07-.06.12.12,0,0,1,0-.1L604.6,153.5a.1.1,0,0,1,.08-.05h0a.1.1,0,0,1,.07.09l3.3,31.13a.08.08,0,0,1,0,.08.09.09,0,0,1-.07,0Z" style="fill:#e3d6ce"/><polygon points="604.68 153.55 607.98 184.68 587.25 180.9 604.68 153.55" style="fill:#e3d6ce"/><path d="M654.64,207.37h0a.09.09,0,0,1-.06-.09v-21.2a.09.09,0,0,1,.05-.09h0a.07.07,0,0,1,.06,0l13.2,10.37a.08.08,0,0,1,0,.07.11.11,0,0,1,0,.08l-13.2,10.84A.07.07,0,0,1,654.64,207.37Z" style="fill:#bfafab"/><polygon points="654.64 186.07 667.83 196.43 654.64 207.27 654.64 186.07" style="fill:#bfafab"/><path d="M654.64,207.37a.1.1,0,0,1-.09,0l-11.78-18.85a.09.09,0,0,1,0-.1.11.11,0,0,1,.07-.06l11.8-2.35a.07.07,0,0,1,.06,0,.09.09,0,0,1,0,.08v21.2a.1.1,0,0,1-.07.1Z" style="fill:#cabfbe"/><polygon points="654.64 186.07 642.86 188.42 654.64 207.27 654.64 186.07" style="fill:#cabfbe"/><path d="M654.61,207.37,639.52,202a.09.09,0,0,1-.06-.11l3.3-13.48a.11.11,0,0,1,.08-.08h0a.1.1,0,0,1,.08.05l11.78,18.85a.11.11,0,0,1,0,.12.11.11,0,0,1-.08,0Z" style="fill:#a29083"/><polygon points="642.86 188.42 639.56 201.9 654.64 207.27 642.86 188.42" style="fill:#a29083"/><path d="M611.28,200.54a.11.11,0,0,1-.1-.08.1.1,0,0,1,.07-.11l31.57-12h0l.06,0a.09.09,0,0,1,0,.1l-3.3,13.47a.09.09,0,0,1-.09.08Z" style="fill:#ae9a92"/><polygon points="642.86 188.42 611.28 200.44 639.56 201.9 642.86 188.42" style="fill:#ae9a92"/><path d="M611.28,200.54h0a.18.18,0,0,1-.05-.07l-3.29-15.76a.1.1,0,0,1,0-.09.09.09,0,0,1,.07,0l34.89,3.74a.12.12,0,0,1,.09.09.11.11,0,0,1-.07.11l-31.57,12Z" style="fill:#e3d3d5"/><polygon points="642.86 188.42 607.98 184.68 611.28 200.44 642.86 188.42" style="fill:#e3d3d5"/><path d="M583.71,200.54a.08.08,0,0,1-.07,0,.11.11,0,0,1,0-.08l3.54-19.54a.12.12,0,0,1,.06-.08h0a.07.07,0,0,1,.06,0l24,19.54a.11.11,0,0,1,0,.11.12.12,0,0,1-.1.07Z" style="fill:#cac7c4"/><polygon points="611.28 200.44 583.71 200.44 587.25 180.9 611.28 200.44" style="fill:#cac7c4"/><path d="M611.28,200.54l-.06,0-24-19.55a.1.1,0,0,1,0-.12.09.09,0,0,1,.09,0L608,184.58a.11.11,0,0,1,.08.08l3.3,15.76a.11.11,0,0,1,0,.11Z" style="fill:#f3eeee"/><polygon points="611.28 200.44 607.98 184.68 587.25 180.9 611.28 200.44" style="fill:#f3eeee"/><path d="M562.74,208.35a.1.1,0,0,1-.08,0,.09.09,0,0,1,0-.12l24.5-27.35a.11.11,0,0,1,.08,0h0a.11.11,0,0,1,.06.1l-3.54,19.55-21,7.88Z" style="fill:#d8c6bc"/><polygon points="583.71 200.44 562.74 208.25 587.25 180.9 583.71 200.44" style="fill:#d8c6bc"/><path d="M562.73,208.34a.11.11,0,0,1-.09-.08.11.11,0,0,1,.07-.11l21-7.8,33.06,13.19a.11.11,0,0,1,.06.12.11.11,0,0,1-.1.08Z" style="fill:#a98f75"/><polygon points="562.74 208.25 616.7 213.63 583.71 200.44 562.74 208.25" style="fill:#a98f75"/><path d="M616.66,213.73l-33-13.2a.1.1,0,0,1-.07-.11.11.11,0,0,1,.1-.08h27.57a.09.09,0,0,1,.09.06l5.42,13.2a.09.09,0,0,1,0,.11.09.09,0,0,1-.07,0Z" style="fill:#c1b4a3"/><polygon points="583.71 200.44 611.28 200.44 616.7 213.63 583.71 200.44" style="fill:#c1b4a3"/><path d="M616.7,213.74a.11.11,0,0,1-.09-.07l-5.42-13.19a.11.11,0,0,1,0-.1.09.09,0,0,1,.08,0l28.29,4.47a.11.11,0,0,1,.09.09.1.1,0,0,1-.07.1l-22.85,8.73Z" style="fill:#bba287"/><polygon points="611.28 200.44 639.56 204.91 616.7 213.63 611.28 200.44" style="fill:#bba287"/><path d="M642.81,219.15a.18.18,0,0,1,0-.07l-3.3-14.15a.1.1,0,0,1,0-.1l.07,0h0l18.61,6.37a.11.11,0,0,1,.07.09.12.12,0,0,1,0,.1l-15.32,7.77h-.09Z" style="fill:#6f5a4a"/><polygon points="639.56 204.91 658.17 211.28 642.86 219.06 639.56 204.91" style="fill:#6f5a4a"/><path d="M616.68,213.73a.11.11,0,0,1-.08-.09.1.1,0,0,1,.07-.1l22.85-8.73h.09a.15.15,0,0,1,0,.06L643,219a.09.09,0,0,1,0,.09.11.11,0,0,1-.07,0Z" style="fill:#ac9a83"/><polygon points="642.86 219.06 616.7 213.63 639.56 204.91 642.86 219.06" style="fill:#ac9a83"/><path d="M650.16,245.55a.12.12,0,0,1-.1-.08l-7.3-26.39a.1.1,0,0,1,0-.11l.05,0a.13.13,0,0,1,.07,0l11.78,13.19a.1.1,0,0,1,0,.1l-4.47,13.2a.12.12,0,0,1-.1.07Z" style="fill:#a38b74"/><polygon points="642.86 219.06 650.16 245.45 654.64 232.25 642.86 219.06" style="fill:#a38b74"/><path d="M654.64,232.35a.11.11,0,0,1-.08,0l-11.78-13.2a.11.11,0,0,1,0-.13.12.12,0,0,1,.08,0l0,0,19.5,10.62a.12.12,0,0,1,.05.1.1.1,0,0,1-.07.08l-7.71,2.57Z" style="fill:#977f71"/><polygon points="642.86 219.06 654.64 232.25 662.35 229.68 642.86 219.06" style="fill:#977f71"/><path d="M662.35,229.78h-.05l-19.49-10.63a.11.11,0,0,1,0-.09.09.09,0,0,1,0-.08l15.32-7.78h.09a.13.13,0,0,1,0,.07l4.18,18.4a.12.12,0,0,1,0,.1Z" style="fill:#dbd0d6"/><polygon points="642.86 219.06 658.17 211.28 662.35 229.68 642.86 219.06" style="fill:#dbd0d6"/><path d="M660.06,245.55a.1.1,0,0,1-.09-.07l-5.42-13.19a.08.08,0,0,1,0-.08.06.06,0,0,1,.06-.05l7.71-2.57h0l.06,0a.12.12,0,0,1,0,.09l-2.29,15.77a.14.14,0,0,1-.09.09Z" style="fill:#59494c"/><polygon points="662.35 229.68 660.06 245.45 654.64 232.25 662.35 229.68" style="fill:#59494c"/><path d="M604.67,130.08a.09.09,0,0,1-.08-.06l-9.9-30.64a.1.1,0,0,1,0-.11l.06,0,.06,0,20.37,15.32a.11.11,0,0,1,0,.14L604.77,130a.11.11,0,0,1-.09.05Z" style="fill:#93714c"/><polygon points="604.68 129.99 615.16 114.67 594.79 99.35 604.68 129.99" style="fill:#93714c"/><path d="M566.26,45.54a.09.09,0,0,1-.09-.06L550.39,6.58a.11.11,0,0,1,0-.12h.06l.07,0,23.12,22.67a.16.16,0,0,1,0,.12l-7.34,16.22a.09.09,0,0,1-.09.06Z" style="fill:#8a888e"/><polygon points="550.48 6.54 566.26 45.44 573.6 29.22 550.48 6.54" style="fill:#8a888e"/><path d="M573.6,29.32a.11.11,0,0,1-.08,0L550.41,6.62a.09.09,0,0,1,0-.13.09.09,0,0,1,.08,0h0l35.12,19.45a.11.11,0,0,1,.05.1.11.11,0,0,1-.08.08l-12,3.22Z" style="fill:#6a594e"/><polygon points="550.48 6.54 585.6 25.99 573.6 29.22 550.48 6.54" style="fill:#6a594e"/><path d="M594.79,63.64l-.06,0-28.52-18.1a.09.09,0,0,1,0-.12l7.33-16.23a.11.11,0,0,1,.09-.05h0a.09.09,0,0,1,.08,0l21.19,34.32a.1.1,0,0,1,0,.13A.11.11,0,0,1,594.79,63.64Z" style="fill:#48403e"/><polygon points="573.6 29.22 594.79 63.54 566.26 45.44 573.6 29.22" style="fill:#48403e"/><path d="M584,63.64,566.19,45.51a.09.09,0,0,1,0-.13.09.09,0,0,1,.08,0l0,0,28.53,18.09a.1.1,0,0,1-.05.19Z" style="fill:#ebeaf0"/><polygon points="566.26 45.44 583.95 63.54 594.79 63.54 566.26 45.44" style="fill:#ebeaf0"/><path d="M594.79,63.64a.11.11,0,0,1-.09,0L573.51,29.27a.1.1,0,0,1,0-.09.11.11,0,0,1,.07-.06l12-3.22h0l0,0a.07.07,0,0,1,0,.06l9.19,37.54a.1.1,0,0,1,0,.12Z" style="fill:#52433d"/><polygon points="594.79 63.54 585.6 25.99 573.6 29.22 594.79 63.54" style="fill:#52433d"/><path d="M594.77,63.64a.11.11,0,0,1-.08-.08L585.5,26a.09.09,0,0,1,0-.11l.05,0a.11.11,0,0,1,.07,0L605,46.31a.09.09,0,0,1,0,.12L594.87,63.59a.09.09,0,0,1-.08,0Z" style="fill:#837e83"/><polygon points="585.6 25.99 604.97 46.38 594.79 63.54 585.6 25.99" style="fill:#837e83"/><path d="M585.6,26.09,576.81,18a.11.11,0,0,1,0-.12.11.11,0,0,1,.09,0h0l28.94,8.12a.09.09,0,0,1,.07.11.1.1,0,0,1-.1.08Z" style="fill:#afa7af"/><polygon points="585.6 25.99 576.88 17.88 605.82 25.99 585.6 25.99" style="fill:#afa7af"/><path d="M605.8,26.09,576.85,18a.11.11,0,0,1-.07-.11L578.61.09a.09.09,0,0,1,.06-.08h0a.11.11,0,0,1,.07,0l27.11,25.89a.09.09,0,0,1,0,.12.11.11,0,0,1-.09.05Z" style="fill:#c2b0b1"/><polygon points="576.88 17.88 578.71 0.1 605.82 25.99 576.88 17.88" style="fill:#c2b0b1"/><path d="M605.82,26.09l-.07,0L578.64.17a.09.09,0,0,1,0-.13.09.09,0,0,1,.08,0h0L603,13l2.94,13a.1.1,0,0,1,0,.11Z" style="fill:#e5e3e7"/><polygon points="578.71 0.1 602.93 13.05 605.82 25.99 578.71 0.1" style="fill:#e5e3e7"/><path d="M626.05,42.21a.11.11,0,0,1-.07,0L605.76,26.07l-2.92-13a.09.09,0,0,1,0-.11h0a.11.11,0,0,1,.08,0L626.13,42a.12.12,0,0,1,0,.14A.11.11,0,0,1,626.05,42.21Z" style="fill:#f1eff6"/><polygon points="602.93 13.05 626.05 42.11 605.82 25.99 602.93 13.05" style="fill:#f1eff6"/><path d="M626,42.2,585.56,26.09a.11.11,0,0,1-.06-.12.11.11,0,0,1,.1-.08h20.22L626.11,42a.09.09,0,0,1,0,.13.09.09,0,0,1-.08.05Z" style="fill:#dfe0eb"/><polygon points="585.6 25.99 626.05 42.11 605.82 25.99 585.6 25.99" style="fill:#dfe0eb"/><path d="M605,46.48a.09.09,0,0,1-.07,0L585.52,26.06a.1.1,0,0,1,.08-.17h0L626.08,42a.11.11,0,0,1,.07.11s0,.08-.08.08Z" style="fill:#d7d9e4"/><polygon points="585.6 25.99 604.97 46.38 626.05 42.11 585.6 25.99" style="fill:#d7d9e4"/><path d="M594.79,99.45a.09.09,0,0,1-.1-.07L583.85,63.57a.1.1,0,0,1,0-.09.09.09,0,0,1,.08,0h10.84a.1.1,0,0,1,.1.1V99.35a.1.1,0,0,1-.09.1Z" style="fill:#7e5946"/><polygon points="594.79 63.54 594.79 99.35 583.95 63.54 594.79 63.54" style="fill:#7e5946"/><path d="M594.79,63.64a.09.09,0,0,1-.07,0,.11.11,0,0,1,0-.12l10.19-17.16L626.05,42a.1.1,0,0,1,.09.06.1.1,0,0,1,0,.12L594.84,63.62Z" style="fill:#dfc4b9"/><polygon points="594.79 63.54 626.05 42.11 604.97 46.38 594.79 63.54" style="fill:#dfc4b9"/><path d="M594.79,99.45h0a.09.09,0,0,1-.06-.09V63.54a.11.11,0,0,1,0-.09h.1l24.59,14.8a.09.09,0,0,1,.05.08.11.11,0,0,1,0,.08l-24.6,21A.07.07,0,0,1,594.79,99.45Z" style="fill:#846863"/><polygon points="594.79 99.35 619.38 78.33 594.79 63.54 594.79 99.35" style="fill:#846863"/><path d="M615.16,114.77l-.06,0L594.73,99.43a.07.07,0,0,1,0-.07.11.11,0,0,1,0-.08l24.59-21a.11.11,0,0,1,.07,0l0,0a.12.12,0,0,1,.05.1l-4.22,36.33a.1.1,0,0,1-.06.08Z" style="fill:#473d45"/><polygon points="594.79 99.35 615.16 114.67 619.38 78.33 594.79 99.35" style="fill:#473d45"/><path d="M631.35,82.21l-12-3.78a.1.1,0,0,1-.07-.09.1.1,0,0,1,.07-.1l12-4h0l.06,0a.09.09,0,0,1,0,.08v7.78a.09.09,0,0,1,0,.08.07.07,0,0,1-.06,0Z" style="fill:#2a1f1d"/><polygon points="619.38 78.33 631.38 74.33 631.38 82.11 619.38 78.33" style="fill:#2a1f1d"/><path d="M631.38,82.21h0a.11.11,0,0,1-.05-.09V74.33a.1.1,0,0,1,.05-.08l0,0h0l9.11,4a.1.1,0,0,1,.06.1.1.1,0,0,1-.06.09l-9.11,3.78Z" style="fill:#0a0909"/><polygon points="631.38 74.33 640.49 78.33 631.38 82.11 631.38 74.33" style="fill:#0a0909"/><path d="M619.38,78.43h0a.1.1,0,0,1-.05-.08L617.5,59.67a.11.11,0,0,1,.06-.1h0a.12.12,0,0,1,.08,0l13.78,14.67a.1.1,0,0,1,0,.09.1.1,0,0,1-.07.07l-12,4Z" style="fill:#b28e85"/><polygon points="631.38 74.33 617.6 59.66 619.38 78.33 631.38 74.33" style="fill:#b28e85"/><path d="M619.38,78.43h0l-24.59-14.8a.09.09,0,0,1,0-.1.11.11,0,0,1,.08-.08l22.83-3.88a.07.07,0,0,1,.06,0,.07.07,0,0,1,0,.07l1.78,18.67a.1.1,0,0,1-.05.09Z" style="fill:#b7948d"/><polygon points="617.6 59.66 594.79 63.54 619.38 78.33 617.6 59.66" style="fill:#b7948d"/><path d="M594.79,63.64a.13.13,0,0,1-.1-.06.1.1,0,0,1,0-.12L626,42h.06a.07.07,0,0,1,.06,0,.1.1,0,0,1,0,.12l-8.45,17.56Z" style="fill:#c5a692"/><polygon points="617.6 59.66 626.05 42.11 594.79 63.54 617.6 59.66" style="fill:#c5a692"/><path d="M617.6,59.77a.1.1,0,0,1-.08-.05.12.12,0,0,1,0-.1L626,42.06A.08.08,0,0,1,626,42h0a.08.08,0,0,1,.07,0L640.57,59.6a.11.11,0,0,1,0,.11.13.13,0,0,1-.1.06Z" style="fill:#ddb5a3"/><polygon points="626.05 42.11 640.49 59.66 617.6 59.66 626.05 42.11" style="fill:#ddb5a3"/><path d="M631.38,74.43a.11.11,0,0,1-.07,0L617.53,59.73a.08.08,0,0,1,0-.1.11.11,0,0,1,.09-.07h22.89a.1.1,0,0,1,.09.06.09.09,0,0,1,0,.1l-9.11,14.67a.12.12,0,0,1-.08,0Z" style="fill:#cca599"/><polygon points="640.49 59.66 631.38 74.33 617.6 59.66 640.49 59.66" style="fill:#cca599"/><path d="M640.46,78.43a.09.09,0,0,1-.06-.1V59.67a.1.1,0,0,1,0-.09l0,0h0l10.89,3.87a.11.11,0,0,1,.06.07.14.14,0,0,1,0,.09l-10.9,14.79s0,0-.08,0Z" style="fill:#eac9c4"/><polygon points="640.49 59.66 651.38 63.54 640.49 78.33 640.49 59.66" style="fill:#eac9c4"/><path d="M640.45,78.43l-9.11-4a.18.18,0,0,1-.05-.07.08.08,0,0,1,0-.08l9.11-14.67a.1.1,0,0,1,.08,0h0a.1.1,0,0,1,.07.1V78.33a.1.1,0,0,1,0,.09h-.1Z" style="fill:#b68370"/><polygon points="640.49 59.66 631.38 74.33 640.49 78.33 640.49 59.66" style="fill:#b68370"/><path d="M640.49,78.43a.11.11,0,0,1-.09-.05.11.11,0,0,1,0-.1l10.9-14.8s0,0,.08,0h0s.06,0,.08.06l6.44,16.13a.09.09,0,0,1,0,.1.12.12,0,0,1-.08,0Z" style="fill:#eed1c7"/><polygon points="651.38 63.54 657.83 79.67 640.49 78.33 651.38 63.54" style="fill:#eed1c7"/><path d="M657.83,98a.09.09,0,0,1-.1-.1V79.67a.1.1,0,0,1,.06-.09h0a.09.09,0,0,1,.07,0l17.78,18.22a.09.09,0,0,1,0,.11.09.09,0,0,1-.09.06Z" style="fill:#e0c6c2"/><polygon points="657.83 79.67 675.61 97.89 657.83 97.89 657.83 79.67" style="fill:#e0c6c2"/><path d="M657.83,98a.08.08,0,0,1-.07,0L640.42,78.4a.11.11,0,0,1,0-.11.13.13,0,0,1,.09-.06l17.35,1.34a.1.1,0,0,1,.09.1V97.89a.13.13,0,0,1-.06.1Z" style="fill:#c5a89d"/><polygon points="657.83 79.67 640.49 78.33 657.83 97.89 657.83 79.67" style="fill:#c5a89d"/><path d="M678.06,117.11a.09.09,0,0,1-.07,0L657.76,98a.09.09,0,0,1,0-.11.1.1,0,0,1,.09-.07h17.78a.11.11,0,0,1,.1.09L678.16,117a.11.11,0,0,1-.06.11Z" style="fill:#665e68"/><polygon points="657.83 97.89 678.06 117.01 675.61 97.89 657.83 97.89" style="fill:#665e68"/><path d="M651.37,112.44a.13.13,0,0,1-.07,0,.1.1,0,0,1,0-.09l6.45-14.45a.11.11,0,0,1,.07-.06h0a.09.09,0,0,1,.07,0l20.22,19.11a.1.1,0,0,1,0,.12.11.11,0,0,1-.09.06Z" style="fill:#47444a"/><polygon points="657.83 97.89 651.38 112.34 678.06 117.01 657.83 97.89" style="fill:#47444a"/><path d="M653.16,125.78l0,0a.12.12,0,0,1-.05-.07l-1.77-13.34a.07.07,0,0,1,0-.08.08.08,0,0,1,.07,0l26.68,4.67a.11.11,0,0,1,.09.09.11.11,0,0,1-.07.1l-24.89,8.67Z" style="fill:#14181a"/><polygon points="651.38 112.34 653.16 125.67 678.06 117.01 651.38 112.34" style="fill:#14181a"/><path d="M651.38,112.44a.1.1,0,0,1-.09-.07l-10.89-34a.09.09,0,0,1,0-.11l0,0a.12.12,0,0,1,.08,0l17.34,19.56a.09.09,0,0,1,0,.1l-6.44,14.45a.11.11,0,0,1-.09.06Z" style="fill:#8c7063"/><polygon points="651.38 112.34 640.49 78.33 657.83 97.89 651.38 112.34" style="fill:#8c7063"/><path d="M651.39,112.44a.13.13,0,0,1-.09,0l-20-30.23a.1.1,0,0,1,0-.09.15.15,0,0,1,.05-.06l9.12-3.78h.08l.05.06,10.89,34a.1.1,0,0,1-.05.12Z" style="fill:#bb9992"/><polygon points="651.38 112.34 631.38 82.11 640.49 78.33 651.38 112.34" style="fill:#bb9992"/><path d="M653.14,125.77l-38-11a.1.1,0,0,1-.07-.11.09.09,0,0,1,.09-.09l36.24-2.33a.09.09,0,0,1,.09.09l1.78,13.33a.09.09,0,0,1,0,.09.09.09,0,0,1-.07,0Z" style="fill:#736365"/><polygon points="651.38 112.34 615.16 114.67 653.16 125.67 651.38 112.34" style="fill:#736365"/><path d="M651.39,112.44a.11.11,0,0,1-.08,0l-32-34a.09.09,0,0,1,0-.12.09.09,0,0,1,.08,0h0l12,3.78,20.06,30.26a.11.11,0,0,1,0,.14Z" style="fill:#9b8383"/><polygon points="651.38 112.34 619.38 78.33 631.38 82.11 651.38 112.34" style="fill:#9b8383"/><path d="M615.16,114.77a.11.11,0,0,1-.08,0,.08.08,0,0,1,0-.08l4.22-36.34a.1.1,0,0,1,.07-.08h0a.1.1,0,0,1,.07,0l32,34a.14.14,0,0,1,0,.11.11.11,0,0,1-.09.06Z" style="fill:#8d7a79"/><polygon points="651.38 112.34 615.16 114.67 619.38 78.33 651.38 112.34" style="fill:#8d7a79"/><path d="M654.64,207.37s-.07,0-.08,0a.09.09,0,0,1,0-.13l13.2-10.84a.09.09,0,0,1,.06,0,.09.09,0,0,1,.07,0,.11.11,0,0,1,0,.13l-3.77,5.79-9.46,5.08Z" style="fill:#614939"/><polygon points="654.64 207.27 664.07 202.23 667.83 196.43 654.64 207.27" style="fill:#614939"/><path d="M664.05,202.33a.11.11,0,0,1-.07-.06.12.12,0,0,1,0-.1l3.77-5.79a.1.1,0,0,1,.08,0h0a.11.11,0,0,1,.09,0l5.27,7.56a.09.09,0,0,1,0,.11.11.11,0,0,1-.09,0Z" style="fill:#4f4835"/><polygon points="664.07 202.23 673.11 204 667.83 196.43 664.07 202.23" style="fill:#4f4835"/><path d="M654.63,207.37a.1.1,0,0,1-.09-.08.11.11,0,0,1,.05-.11l9.43-5h.08l.06.05,3.21,6.49a.14.14,0,0,1,0,.11.12.12,0,0,1-.08,0Z" style="fill:#3b2c20"/><polygon points="664.07 202.23 667.28 208.72 654.64 207.27 664.07 202.23" style="fill:#3b2c20"/></g></g></svg>